<svg width="48" height="48" viewBox="0 0 48 48" fill="none" xmlns="http://www.w3.org/2000/svg">
<g clip-path="url(#clip0)">
<path d="M28.0729 19.0027L24.4695 22.3552L21.126 15.6108L22.8562 11.7318C23.3062 10.9443 24.0082 10.9533 24.447 11.7318L28.0729 19.0027Z" fill="#FFA000"/>
<path d="M21.1257 15.6108L24.4692 22.3552L11.0029 34.8821L21.1257 15.6108Z" fill="#F57F17"/>
<path d="M32.0134 13.8784C32.6569 13.2596 33.3229 13.4711 33.4928 14.3475L36.9983 34.7156L25.3793 41.6906C24.9743 41.9156 23.8943 42.0124 23.8943 42.0124C23.8943 42.0124 22.9111 41.8954 22.5364 41.6749L11.0029 34.8821L32.0134 13.8784Z" fill="#FFCA28"/>
<path d="M21.1255 15.6111L11.0039 34.8823L15.5118 6.71794C15.6783 5.84044 16.1778 5.75607 16.6233 6.53007L21.1255 15.6111Z" fill="#FFA000"/>
</g>
<defs>
<clipPath id="clip0">
<rect width="36" height="36" fill="white" transform="translate(6 6)"/>
</clipPath>
</defs>
</svg>
