<svg width="48" height="48" viewBox="0 0 48 48" fill="none" xmlns="http://www.w3.org/2000/svg">
<g clip-path="url(#clip0)">
<path d="M40.3455 16.5565C40.3452 15.9528 40.2145 15.4193 39.9501 14.9614C39.6904 14.5112 39.3014 14.1338 38.7797 13.8354C34.4735 11.383 30.163 8.93817 25.8581 6.4833C24.6975 5.82155 23.5723 5.84567 22.4203 6.51692C20.7062 7.5153 12.1247 12.3712 9.56748 13.834C8.51435 14.4362 8.0019 15.3577 8.00165 16.5554C8 21.4873 8.00165 26.419 8 31.351C8 31.9415 8.12542 32.4647 8.37817 32.9157C8.638 33.3795 9.03237 33.7673 9.56608 34.0724C12.1234 35.5353 20.7061 40.3908 22.4198 41.3894C23.5723 42.061 24.6975 42.085 25.8585 41.423C30.1635 38.968 34.4742 36.5233 38.7811 34.0709C39.3149 33.7659 39.7092 33.3779 39.9691 32.9144C40.2214 32.4634 40.3471 31.9403 40.3471 31.3497C40.3471 31.3497 40.3471 21.4885 40.3455 16.5565Z" fill="#A179DC"/>
<path d="M24.2228 23.9053L8.37793 32.9158C8.63776 33.3797 9.03213 33.7674 9.56585 34.0725C12.1232 35.5354 20.7059 40.3909 22.4195 41.3895C23.572 42.0612 24.6973 42.0852 25.8582 41.4232C30.1633 38.9682 34.474 36.5234 38.7809 34.071C39.3146 33.766 39.709 33.378 39.9688 32.9145L24.2228 23.9053Z" fill="#280068"/>
<path d="M40.3461 16.5566C40.3458 15.9528 40.2151 15.4193 39.9507 14.9614L24.2236 23.9052L39.9697 32.9144C40.222 32.4634 40.3474 31.9403 40.3477 31.3497C40.3477 31.3497 40.3477 21.4886 40.3461 16.5566Z" fill="#390091"/>
<path d="M33.552 20.5366V22.2208H35.2573V20.5366H36.1099V22.2208H37.8152V23.0629H36.1099V24.7471H37.8152V25.5893H36.1099V27.2735H35.2573V25.5893H33.552V27.2735H32.6994V25.5893H30.9941V24.7471H32.6994V23.0629H30.9941V22.2208H32.6994V20.5366H33.552ZM35.2573 23.0629H33.552V24.7471H35.2573V23.0629Z" fill="white"/>
<path d="M24.2579 12.0781C28.7058 12.0781 32.5891 14.4639 34.6691 18.0101L34.6488 17.976L29.4157 20.952C28.3846 19.2278 26.4944 18.0643 24.3262 18.0403L24.2579 18.0399C20.9514 18.0399 18.2707 20.6874 18.2707 23.9531C18.2707 25.021 18.559 26.0221 19.0603 26.8867C20.0923 28.6661 22.0324 29.8663 24.2579 29.8663C26.4971 29.8663 28.4482 28.6509 29.475 26.8525L29.45 26.8956L34.6754 29.8854C32.6182 33.4016 28.788 35.78 24.3918 35.8274L24.2579 35.8281C19.796 35.8281 15.9016 33.4276 13.8268 29.8627C12.8139 28.1223 12.2344 26.1046 12.2344 23.9531C12.2344 17.3948 17.6174 12.0781 24.2579 12.0781Z" fill="white"/>
</g>
<defs>
<clipPath id="clip0">
<rect width="32.4" height="36" fill="white" transform="translate(8 6)"/>
</clipPath>
</defs>
</svg>
