<svg width="48" height="48" viewBox="0 0 48 48" fill="none" xmlns="http://www.w3.org/2000/svg">
<path d="M40.4079 22.4813L25.5184 7.59249C24.6611 6.7348 23.2704 6.7348 22.4124 7.59249L19.3208 10.6848L23.2426 14.6065C24.1541 14.2985 25.1992 14.5052 25.9255 15.2319C26.6563 15.963 26.8612 17.0171 26.5453 17.9319L30.3257 21.7119C31.2405 21.3964 32.2953 21.6006 33.0257 22.3321C34.0463 23.3527 34.0463 25.0065 33.0257 26.0278C32.0043 27.0488 30.3506 27.0488 29.3288 26.0278C28.5613 25.2596 28.3713 24.1313 28.7606 23.1857L25.2348 19.6603V28.9375C25.4835 29.0607 25.7184 29.2248 25.9255 29.4319C26.9461 30.4525 26.9461 32.1063 25.9255 33.128C24.9049 34.1482 23.25 34.1482 22.2301 33.128C21.2095 32.1059 21.2095 30.4521 22.2301 29.4319C22.4825 29.1799 22.7746 28.9891 23.0864 28.8614V19.4977C22.7746 19.3701 22.4833 19.1811 22.2301 18.9273C21.4571 18.1546 21.2711 17.0197 21.6675 16.0703L17.8014 12.2035L7.59151 22.4122C6.73382 23.2707 6.73382 24.6613 7.59151 25.519L22.4818 40.4082C23.3391 41.2659 24.7294 41.2659 25.5878 40.4082L40.4079 25.588C41.2656 24.7303 41.2656 23.339 40.4079 22.4813Z" fill="#F05133"/>
</svg>
