<svg width="48" height="48" viewBox="0 0 48 48" fill="none" xmlns="http://www.w3.org/2000/svg">
<path d="M42 6H6V42H42V6Z" fill="#F7DF1E"/>
<path d="M30.1825 34.125C30.9077 35.309 31.8511 36.1793 33.5197 36.1793C34.9214 36.1793 35.8168 35.4787 35.8168 34.5107C35.8168 33.3507 34.8968 32.9399 33.3539 32.265L32.5082 31.9021C30.0671 30.8621 28.4454 29.5593 28.4454 26.805C28.4454 24.2679 30.3785 22.3364 33.3997 22.3364C35.5505 22.3364 37.0968 23.085 38.2111 25.045L35.5768 26.7364C34.9968 25.6964 34.3711 25.2867 33.3997 25.2867C32.4088 25.2867 31.7808 25.9153 31.7808 26.7364C31.7808 27.7513 32.4094 28.1621 33.8608 28.7907L34.7065 29.153C37.5808 30.3856 39.2037 31.6421 39.2037 34.4673C39.2037 37.513 36.8111 39.1816 33.5979 39.1816C30.4562 39.1816 28.4265 37.6844 27.4334 35.7221L30.1825 34.125ZM18.2322 34.4181C18.7637 35.361 19.2471 36.1581 20.4094 36.1581C21.5208 36.1581 22.2219 35.7233 22.2219 34.0324V22.5296H25.6048V34.0781C25.6048 37.581 23.5511 39.1753 20.5534 39.1753C17.8448 39.1753 16.2762 37.7736 15.4785 36.0853L18.2322 34.4181Z" fill="black"/>
</svg>
