<svg width="48" height="48" viewBox="0 0 48 48" fill="none" xmlns="http://www.w3.org/2000/svg">
<path d="M44.426 24.0041C44.426 21.3262 41.0722 18.7883 35.9304 17.2145C37.117 11.9739 36.5896 7.80453 34.2659 6.46967C33.7303 6.15656 33.1041 6.00824 32.4201 6.00824V7.84573C32.7992 7.84573 33.1041 7.91989 33.3595 8.05997C34.4802 8.70268 34.9663 11.1499 34.5873 14.2976C34.4966 15.0721 34.3483 15.8878 34.167 16.7201C32.552 16.3246 30.7886 16.0197 28.9346 15.8219C27.8222 14.2976 26.6685 12.9133 25.5067 11.702C28.193 9.20531 30.7144 7.83749 32.4284 7.83749V6C30.1623 6 27.1959 7.61502 24.1965 10.4166C21.1971 7.6315 18.2307 6.03296 15.9646 6.03296V7.87045C17.6703 7.87045 20.2001 9.23003 22.8863 11.7102C21.7327 12.9215 20.5791 14.2976 19.4832 15.8219C17.6209 16.0197 15.8575 16.3246 14.2425 16.7283C14.0529 15.9043 13.9128 15.1051 13.814 14.3387C13.4267 11.1911 13.9046 8.74388 15.017 8.09293C15.2642 7.94461 15.5856 7.87869 15.9646 7.87869V6.0412C15.2725 6.0412 14.6462 6.18952 14.1024 6.50263C11.7869 7.83749 11.2678 11.9986 12.4626 17.2227C7.33724 18.8048 4 21.3344 4 24.0041C4 26.6821 7.35372 29.22 12.4956 30.7938C11.309 36.0343 11.8363 40.2037 14.1601 41.5386C14.6957 41.8517 15.3219 42 16.0141 42C18.2801 42 21.2465 40.385 24.2459 37.5834C27.2453 40.3685 30.2118 41.967 32.4778 41.967C33.17 41.967 33.7962 41.8187 34.3401 41.5056C36.6555 40.1707 37.1747 36.0096 35.9799 30.7855C41.0887 29.2117 44.426 26.6738 44.426 24.0041ZM33.6973 18.5081C33.3925 19.5711 33.0134 20.667 32.5849 21.7629C32.2471 21.1037 31.8928 20.4445 31.5055 19.7853C31.1264 19.1261 30.7227 18.4834 30.3189 17.8572C31.489 18.0302 32.6179 18.2444 33.6973 18.5081ZM29.9234 27.2836C29.2806 28.396 28.6214 29.4507 27.9375 30.4312C26.7097 30.5383 25.4655 30.596 24.213 30.596C22.9687 30.596 21.7245 30.5383 20.5049 30.4395C19.821 29.4589 19.1536 28.4125 18.5108 27.3083C17.8846 26.2289 17.316 25.133 16.7969 24.0288C17.3078 22.9247 17.8846 21.8206 18.5026 20.7411C19.1453 19.6287 19.8045 18.574 20.4885 17.5935C21.7162 17.4864 22.9605 17.4287 24.213 17.4287C25.4572 17.4287 26.7015 17.4864 27.921 17.5853C28.605 18.5658 29.2724 19.6123 29.9151 20.7164C30.5414 21.7958 31.11 22.8917 31.6291 23.9959C31.11 25.1 30.5414 26.2042 29.9234 27.2836ZM32.5849 26.2124C33.0299 27.3165 33.4089 28.4207 33.7221 29.4919C32.6426 29.7555 31.5055 29.978 30.3271 30.1511C30.7309 29.5166 31.1347 28.8656 31.5137 28.1982C31.8928 27.539 32.2471 26.8716 32.5849 26.2124ZM24.2295 35.0043C23.4631 34.2133 22.6968 33.3317 21.9387 32.3676C22.6803 32.4005 23.4384 32.4253 24.2047 32.4253C24.9793 32.4253 25.7456 32.4088 26.4955 32.3676C25.7539 33.3317 24.9876 34.2133 24.2295 35.0043ZM18.0988 30.1511C16.9287 29.978 15.7998 29.7638 14.7204 29.5001C15.0253 28.4372 15.4043 27.3413 15.8328 26.2454C16.1706 26.9046 16.525 27.5637 16.9122 28.2229C17.2995 28.8821 17.6951 29.5248 18.0988 30.1511ZM24.1883 13.0039C24.9546 13.7949 25.7209 14.6766 26.479 15.6406C25.7374 15.6077 24.9793 15.583 24.213 15.583C23.4384 15.583 22.6721 15.5995 21.9222 15.6406C22.6638 14.6766 23.4302 13.7949 24.1883 13.0039ZM18.0906 17.8572C17.6868 18.4916 17.2831 19.1426 16.904 19.81C16.525 20.4692 16.1706 21.1284 15.8328 21.7876C15.3878 20.6835 15.0088 19.5793 14.6957 18.5081C15.7751 18.2527 16.9123 18.0302 18.0906 17.8572ZM10.6333 28.1735C7.71629 26.9293 5.8293 25.2978 5.8293 24.0041C5.8293 22.7105 7.71629 21.0707 10.6333 19.8347C11.3419 19.5299 12.1165 19.258 12.9158 19.0025C13.3855 20.6175 14.0035 22.2985 14.7698 24.0206C14.0117 25.7345 13.402 27.4072 12.9405 29.014C12.1247 28.7585 11.3502 28.4784 10.6333 28.1735ZM15.0665 39.9483C13.9458 39.3056 13.4596 36.8583 13.8387 33.7107C13.9293 32.9361 14.0777 32.1204 14.2589 31.2882C15.874 31.6837 17.6374 31.9886 19.4914 32.1863C20.6038 33.7107 21.7574 35.095 22.9193 36.3062C20.233 38.8029 17.7115 40.1707 15.9976 40.1707C15.6268 40.1625 15.3137 40.0883 15.0665 39.9483ZM34.612 33.6695C34.9993 36.8171 34.5214 39.2644 33.4089 39.9153C33.1617 40.0636 32.8404 40.1295 32.4613 40.1295C30.7556 40.1295 28.2259 38.77 25.5396 36.2898C26.6933 35.0785 27.8469 33.7024 28.9428 32.1781C30.8051 31.9803 32.5685 31.6754 34.1835 31.2717C34.373 32.1039 34.5214 32.9032 34.612 33.6695ZM37.7844 28.1735C37.0758 28.4784 36.3012 28.7503 35.5019 29.0057C35.0322 27.3907 34.4142 25.7098 33.6479 23.9876C34.406 22.2737 35.0158 20.6011 35.4772 18.9943C36.293 19.2497 37.0676 19.5299 37.7927 19.8347C40.7097 21.079 42.5967 22.7105 42.5967 24.0041C42.5884 25.2978 40.7014 26.9375 37.7844 28.1735Z" fill="#61DAFB"/>
<path d="M24.2052 27.77C26.2849 27.77 27.9709 26.0841 27.9709 24.0044C27.9709 21.9247 26.2849 20.2388 24.2052 20.2388C22.1254 20.2388 20.4395 21.9247 20.4395 24.0044C20.4395 26.0841 22.1254 27.77 24.2052 27.77Z" fill="#61DAFB"/>
</svg>
