<svg width="48" height="48" viewBox="0 0 48 48" fill="none" xmlns="http://www.w3.org/2000/svg">
<g clip-path="url(#clip0)">
<path d="M24 42C33.9411 42 42 33.9411 42 24C42 14.0589 33.9411 6 24 6C14.0589 6 6 14.0589 6 24C6 33.9411 14.0589 42 24 42Z" fill="#5C2D91"/>
<path opacity="0.1" d="M11.5238 11.0625C9.69398 12.6931 8.21642 14.6802 7.18171 16.902C6.147 19.1238 5.57694 21.5335 5.50647 23.9835C5.43599 26.4334 5.86659 28.8719 6.77187 31.1495C7.67714 33.4271 9.03803 35.4959 10.7711 37.229C12.5042 38.962 14.5729 40.3229 16.8505 41.2282C19.1282 42.1335 21.5667 42.5641 24.0166 42.4936C26.4665 42.4231 28.8762 41.8531 31.0981 40.8183C33.3199 39.7836 35.307 38.3061 36.9376 36.4763L11.5238 11.0625Z" fill="white"/>
<path d="M10.1623 26.9533C10.0573 26.9549 9.95313 26.9348 9.85631 26.8941C9.7595 26.8535 9.67216 26.7932 9.59983 26.717C9.52552 26.6436 9.46679 26.5559 9.42716 26.4593C9.38754 26.3626 9.36782 26.259 9.36921 26.1545C9.36846 26.0502 9.38846 25.9467 9.42805 25.8501C9.46764 25.7536 9.52604 25.6658 9.59983 25.592C9.67145 25.5146 9.75852 25.4531 9.85542 25.4114C9.95231 25.3697 10.0569 25.3489 10.1623 25.3502C10.2676 25.3499 10.3719 25.3712 10.4686 25.4128C10.5654 25.4544 10.6526 25.5154 10.7248 25.592C10.7999 25.6652 10.8595 25.7527 10.9001 25.8493C10.9407 25.9459 10.9614 26.0497 10.9611 26.1545C10.9621 26.2594 10.9416 26.3634 10.901 26.4602C10.8604 26.5569 10.8004 26.6443 10.7248 26.717C10.6519 26.7924 10.5644 26.8521 10.4678 26.8927C10.3711 26.9333 10.2672 26.9539 10.1623 26.9533Z" fill="white"/>
<path d="M21.3395 26.8125H19.8658L14.5952 18.6337C14.4639 18.4322 14.3545 18.2172 14.2689 17.9925H14.2239C14.274 18.4595 14.2928 18.9293 14.2802 19.3987V26.8125H13.082V16.5581H14.6402L19.7702 24.5906C19.9839 24.9244 20.1227 25.1531 20.1864 25.2769H20.2145C20.1552 24.7767 20.1307 24.2729 20.1414 23.7694V16.5581H21.3395V26.8125Z" fill="white"/>
<path d="M29.4506 26.8125H24V16.5581H29.1975V17.6437H25.2263V21.0525H28.9275V22.1325H25.2263V25.6875H29.4563L29.4506 26.8125Z" fill="white"/>
<path d="M37.4999 17.6437H34.5187V26.8125H33.3205V17.6437H30.373V16.5581H37.4999V17.6437Z" fill="white"/>
<path d="M20.6925 33.7874C20.2864 33.9841 19.8385 34.0787 19.3875 34.063C19.0879 34.0765 18.7888 34.0258 18.5103 33.9142C18.2319 33.8027 17.9806 33.6329 17.7731 33.4162C17.3598 32.9535 17.1421 32.3486 17.1656 31.7287C17.1505 31.393 17.203 31.0577 17.3199 30.7427C17.4368 30.4277 17.6158 30.1394 17.8463 29.8949C18.0709 29.6648 18.3409 29.484 18.6391 29.3639C18.9374 29.2438 19.2574 29.1871 19.5788 29.1974C19.9634 29.1843 20.3465 29.2513 20.7038 29.3943V29.9568C20.3598 29.7664 19.9719 29.6694 19.5788 29.6755C19.3309 29.6686 19.0845 29.7152 18.8563 29.8123C18.6282 29.9094 18.4237 30.0546 18.2569 30.238C17.9061 30.6377 17.7245 31.1582 17.7506 31.6893C17.7244 32.1924 17.8937 32.6862 18.2231 33.0674C18.3812 33.2373 18.5741 33.3711 18.7887 33.4594C19.0032 33.5478 19.2344 33.5887 19.4663 33.5793C19.8982 33.5906 20.3247 33.4815 20.6981 33.2643L20.6925 33.7874Z" fill="#F2F2F2"/>
<path d="M22.9932 34.0633C22.7693 34.0705 22.5465 34.0296 22.3398 33.9432C22.133 33.8568 21.9473 33.727 21.7951 33.5626C21.4875 33.2194 21.3278 32.7686 21.3507 32.3083C21.3367 32.0671 21.3707 31.8255 21.4509 31.5976C21.531 31.3697 21.6557 31.16 21.8176 30.9808C21.9829 30.8195 22.1795 30.6938 22.3952 30.6116C22.611 30.5294 22.8413 30.4923 23.072 30.5026C23.29 30.491 23.508 30.5267 23.7109 30.6073C23.9139 30.6879 24.0969 30.8115 24.2476 30.9695C24.5466 31.3298 24.6974 31.7903 24.6695 32.2576C24.6931 32.7319 24.5295 33.1965 24.2139 33.5514C24.0588 33.719 23.8696 33.8514 23.6591 33.9397C23.4485 34.028 23.2215 34.0701 22.9932 34.0633ZM23.0326 30.9864C22.8779 30.9799 22.7237 31.0083 22.5815 31.0697C22.4393 31.1311 22.3128 31.2237 22.2114 31.3408C21.9949 31.6195 21.887 31.9672 21.9076 32.3195C21.888 32.6613 21.9962 32.9982 22.2114 33.2645C22.3138 33.3799 22.4407 33.471 22.5827 33.5314C22.7248 33.5917 22.8784 33.6197 23.0326 33.6133C23.1836 33.6222 23.3345 33.5964 23.474 33.5379C23.6134 33.4794 23.7376 33.3897 23.837 33.2758C24.0415 32.9963 24.1411 32.6538 24.1182 32.3083C24.1405 31.961 24.041 31.6169 23.837 31.3351C23.739 31.2188 23.6153 31.1268 23.4758 31.0663C23.3362 31.0057 23.1845 30.9784 23.0326 30.9864Z" fill="#F2F2F2"/>
<path d="M27.2965 31.155C27.175 31.0754 27.0308 31.0379 26.8859 31.0481C26.7726 31.0523 26.662 31.0842 26.5639 31.1411C26.4658 31.1979 26.3832 31.2781 26.3234 31.3744C26.156 31.6394 26.0754 31.9501 26.0928 32.2631V33.9844H25.5303V30.6094H26.0928V31.3125C26.1546 31.095 26.2776 30.8997 26.4471 30.75C26.5938 30.6227 26.7817 30.5528 26.9759 30.5531C27.0846 30.5483 27.1933 30.5635 27.2965 30.5981V31.155Z" fill="#F2F2F2"/>
<path d="M30.5922 32.4374H28.2128C28.1968 32.7519 28.2992 33.0609 28.4997 33.3037C28.6039 33.4077 28.729 33.4885 28.8666 33.5408C29.0042 33.5932 29.1514 33.6159 29.2984 33.6074C29.6797 33.6036 30.0485 33.4708 30.3447 33.2306V33.7368C29.9969 33.966 29.585 34.0784 29.169 34.0574C28.9591 34.068 28.7495 34.0322 28.555 33.9525C28.3606 33.8727 28.1861 33.7511 28.044 33.5962C27.7512 33.2309 27.6048 32.7697 27.6334 32.3024C27.6132 31.834 27.7721 31.3754 28.0778 31.0199C28.2169 30.8592 28.39 30.7314 28.5846 30.6458C28.7791 30.5602 28.9903 30.5189 29.2028 30.5249C29.3946 30.5142 29.5864 30.5471 29.7637 30.6211C29.9411 30.6952 30.0993 30.8084 30.2265 30.9524C30.4855 31.294 30.6133 31.7171 30.5865 32.1449L30.5922 32.4374ZM30.0297 31.9818C30.0411 31.7212 29.9615 31.4647 29.8047 31.2562C29.7277 31.1692 29.632 31.1008 29.5249 31.056C29.4178 31.0112 29.3019 30.9912 29.1859 30.9974C29.0649 30.996 28.9448 31.0197 28.8334 31.0672C28.7221 31.1146 28.6218 31.1847 28.539 31.2731C28.3539 31.4689 28.2374 31.7196 28.2072 31.9874L30.0297 31.9818Z" fill="#F2F2F2"/>
</g>
<defs>
<clipPath id="clip0">
<rect width="36" height="36" fill="white" transform="translate(6 6)"/>
</clipPath>
</defs>
</svg>
