<svg width="48" height="48" viewBox="0 0 48 48" fill="none" xmlns="http://www.w3.org/2000/svg">
<path d="M28.7662 22.8062L21.5567 25.1603L15.2846 27.9285L13.5299 28.3918C13.083 28.8168 12.6144 29.2474 12.1076 29.6833C11.5518 30.1628 11.0341 30.5988 10.6363 30.9148C10.1949 31.2636 9.54096 31.9175 9.20859 32.3316C8.71267 32.9528 8.32033 33.6122 8.15139 34.119C7.85165 35.0345 7.99886 35.9609 8.57647 36.8165C9.31757 37.9063 10.7944 39.0179 12.5163 39.7754C13.3937 40.1624 14.8704 40.6582 15.9821 40.9361C17.8293 41.4048 21.4041 41.9116 23.3713 41.9879C23.769 42.0042 24.3031 42.0042 24.3249 41.9879C24.3685 41.9606 24.6737 41.3775 25.0279 40.6528C26.2377 38.1842 27.1096 35.8682 27.5836 33.8902C27.867 32.6914 28.0904 31.0947 28.2374 29.2039C28.2757 28.6752 28.2919 26.9042 28.2593 26.3047C28.2102 25.3239 28.123 24.5283 27.9869 23.7491C27.965 23.6346 27.9595 23.531 27.9705 23.5256C27.9922 23.5093 28.0576 23.4875 28.9458 23.2313L28.7661 22.8063V22.8062H28.7662V22.8062ZM27.1205 23.7707C27.1859 23.7707 27.3602 25.4436 27.4038 26.5009C27.4147 26.7243 27.4092 26.8714 27.3984 26.8714C27.3548 26.8714 26.4774 26.3538 25.8509 25.9615C25.3059 25.6181 24.2706 24.9315 24.1071 24.8007C24.0525 24.7626 24.0579 24.7572 24.5048 24.6045C25.2622 24.3484 27.0606 23.7707 27.1205 23.7707ZM23.4477 24.9805C23.4967 24.9805 23.622 25.0513 23.9217 25.2366C25.0442 25.9396 26.5701 26.7897 27.224 27.0731C27.4256 27.1603 27.4473 27.1275 26.9842 27.4437C25.9925 28.1193 24.7554 28.7841 23.2405 29.4544C22.9735 29.5743 22.7501 29.6669 22.7447 29.6669C22.7338 29.6669 22.7664 29.5308 22.81 29.3672C23.1751 28.0103 23.3822 26.6371 23.3932 25.5363C23.3986 24.9913 23.3986 24.9913 23.4477 24.9751C23.4367 24.9805 23.4421 24.9805 23.4477 24.9805ZM22.6902 25.2693C22.7228 25.3019 22.7011 26.5227 22.6575 26.855C22.5594 27.6507 22.4068 28.3917 22.1562 29.2256C22.0963 29.427 22.0417 29.5961 22.0309 29.6069C22.009 29.6342 21.2624 28.904 21.0172 28.6206C20.5921 28.1301 20.2598 27.6397 20.0146 27.1602C19.8892 26.915 19.6931 26.4355 19.7094 26.4191C19.7966 26.3592 22.6684 25.2475 22.6902 25.2693ZM19.1263 26.6698C19.1317 26.6698 19.1372 26.6698 19.1427 26.6752C19.1535 26.6861 19.1918 26.7733 19.2245 26.8714C19.3988 27.3455 19.7911 28.043 20.129 28.4898C20.4996 28.9803 20.9846 29.5034 21.3877 29.8467C21.5186 29.9557 21.6384 30.0592 21.6547 30.0756C21.6875 30.1083 21.6984 30.1028 20.8101 30.4407C19.7803 30.833 18.6577 31.2254 17.3716 31.6395C17.0644 31.7385 16.7574 31.8384 16.4508 31.9392C16.4017 31.9556 16.418 31.9283 16.5597 31.705C17.1973 30.7077 18.1672 28.7514 18.7122 27.3673C18.8048 27.1275 18.8975 26.8878 18.9138 26.8332C18.9357 26.7569 18.9628 26.7297 19.0337 26.6915C19.0718 26.6807 19.11 26.6698 19.1263 26.6698ZM18.0365 27.1221C18.0529 27.133 17.7749 27.716 17.5025 28.2501C16.9738 29.28 16.3962 30.2936 15.6224 31.5251C15.4917 31.7376 15.3664 31.9338 15.35 31.9556C15.3228 31.9938 15.3118 31.9829 15.2247 31.814C15.0394 31.4488 14.8867 30.9802 14.805 30.5497C14.7233 30.1246 14.7396 29.3835 14.8323 28.9258C14.9031 28.588 14.8977 28.5934 15.0612 28.5117C15.7587 28.1575 18.0147 27.1003 18.0365 27.1221ZM27.4366 27.5036V27.7324C27.4366 28.9476 27.3058 30.6151 27.115 31.8303C27.0823 32.0428 27.055 32.2172 27.0496 32.2227C27.0496 32.2227 26.8916 32.1791 26.7063 32.1246C25.889 31.8684 25.0007 31.4924 24.1996 31.0511C23.671 30.7623 22.9027 30.2881 22.9245 30.2663C22.9299 30.2609 23.1588 30.141 23.4257 29.9993C24.4939 29.4435 25.5183 28.8441 26.4066 28.2501C26.739 28.0267 27.2403 27.6671 27.3494 27.5689L27.4366 27.5036ZM13.9222 29.1165C13.944 29.1165 13.9386 29.1601 13.9059 29.3562C13.8841 29.498 13.8568 29.7595 13.846 29.9393C13.8023 30.7349 13.9332 31.3235 14.3255 32.1299C14.4345 32.3534 14.5217 32.5386 14.5162 32.5441C14.478 32.5768 10.8707 33.634 9.73715 33.9446C9.39931 34.0372 9.10511 34.1189 9.08319 34.1243C9.04512 34.1353 9.03964 34.1299 9.05598 34.0371C9.1813 33.2361 9.79165 32.1899 10.6417 31.307C11.2085 30.7185 11.6608 30.3753 12.4346 29.9338C12.9904 29.6178 13.8459 29.1438 13.9113 29.1219C13.9114 29.1165 13.9168 29.1165 13.9222 29.1165ZM22.4232 30.6368C22.4286 30.6314 22.5594 30.7023 22.7174 30.7949C23.8836 31.4706 25.5074 32.0973 26.8915 32.4188L27.0169 32.4461L26.8425 32.5441C26.1178 32.9473 23.7364 33.9391 21.3006 34.8492C20.9464 34.9799 20.5976 35.1107 20.5322 35.1379C20.4668 35.1652 20.4068 35.1816 20.4068 35.1761C20.4068 35.1706 20.505 34.9799 20.6302 34.7456C21.3114 33.4705 21.9981 31.9174 22.3468 30.8385C22.3905 30.7349 22.4177 30.6423 22.4232 30.6368ZM21.5567 30.9202C21.5623 30.9258 21.5186 31.0401 21.4641 31.1709C20.99 32.3207 20.3687 33.5741 19.5732 34.98C19.3716 35.3397 19.2026 35.6285 19.1971 35.6285C19.1917 35.6285 19.0282 35.5304 18.832 35.4105C17.6767 34.7021 16.6523 33.8302 15.9821 32.9855L15.884 32.8657L16.3798 32.7294C18.1563 32.2445 19.6657 31.7213 21.1643 31.0783C21.3769 30.9911 21.5513 30.9202 21.5567 30.9202ZM26.9407 32.8002C26.9407 32.8002 26.9461 32.8057 26.9407 32.8002C26.9461 32.9256 26.6682 34.0482 26.4393 34.86C26.2486 35.5412 26.085 36.0753 25.7854 37.0179C25.6546 37.4322 25.5402 37.7754 25.5347 37.7754C25.5293 37.7754 25.4966 37.77 25.4639 37.7591C23.8455 37.4648 22.3959 37.0561 21.0336 36.5112C20.6521 36.3586 20.1072 36.1134 20.0745 36.0861C20.0637 36.0751 20.3906 35.9227 20.8048 35.7428C23.2842 34.6584 25.8563 33.4268 26.739 32.8983C26.8425 32.8329 26.9243 32.8002 26.9407 32.8002ZM14.5108 33.2253C14.5217 33.2362 13.8296 34.2334 12.8596 35.5903C12.5218 36.0644 12.1294 36.6202 11.9823 36.8273C11.8352 37.0343 11.6118 37.3613 11.4864 37.5575L11.2575 37.9117L11.0122 37.7047C10.7234 37.4648 10.2221 36.9526 9.99871 36.6693C9.53003 36.0862 9.21404 35.4705 9.0887 34.9092C9.02874 34.6476 9.02874 34.5168 9.08317 34.5005C9.16489 34.4787 10.6199 34.1354 11.9823 33.8193C12.7397 33.6449 13.617 33.4379 13.9331 33.3616C14.2492 33.2852 14.5054 33.2253 14.5108 33.2253ZM15.2083 33.4923L15.3826 33.6885C16.1674 34.5658 16.9684 35.2144 17.9384 35.781C18.1128 35.8792 18.2436 35.9663 18.2326 35.9719C18.1946 35.9991 14.8649 37.1815 13.3228 37.7155C12.4564 38.0207 11.7425 38.2659 11.7371 38.2659C11.7317 38.2659 11.6826 38.2332 11.628 38.195L11.53 38.1242L11.688 37.8954C12.2002 37.1542 12.8433 36.3423 14.2438 34.653L15.2083 33.4923ZM19.5569 36.6038C19.5622 36.5984 19.802 36.6856 20.0963 36.7947C20.8048 37.0616 21.3659 37.2305 22.118 37.4213C23.0444 37.6556 24.3849 37.8845 25.1751 37.9499C25.295 37.9607 25.3604 37.9717 25.3386 37.988C25.3004 38.0099 24.4994 38.2769 23.9109 38.4621C22.9735 38.7564 20.1127 39.601 17.7804 40.2713C17.3499 40.3966 16.9793 40.5002 16.9575 40.5056C16.9031 40.5165 16.7232 40.4674 16.7232 40.4456C16.7232 40.4348 16.854 40.2659 17.012 40.0806C17.7967 39.1433 18.576 38.097 19.2245 37.1052C19.4042 36.8327 19.5569 36.6093 19.5569 36.6038ZM18.5977 36.6312C18.6031 36.6366 18.2163 37.2578 17.5407 38.3258C17.2518 38.7781 16.9302 39.2903 16.8158 39.4702C16.7068 39.6446 16.5433 39.9171 16.4507 40.0696L16.2927 40.3476L16.211 40.3257C16.0147 40.2712 14.6361 39.7862 14.271 39.6391C13.8186 39.4593 13.35 39.2413 13.0012 39.0561C12.5653 38.8217 12.0205 38.4729 12.064 38.4621C12.0749 38.4567 12.8215 38.255 13.7205 38.0098C16.1074 37.3612 17.4315 36.9853 18.298 36.7128C18.4561 36.6638 18.5923 36.6256 18.5977 36.6312ZM25.3821 38.2223H25.3876C25.4094 38.2768 24.5266 40.729 24.205 41.5028C24.1343 41.6771 24.1071 41.7208 24.0689 41.7152C23.9762 41.7099 22.6957 41.53 21.9163 41.4156C20.5595 41.2085 18.2817 40.8107 17.7095 40.6799L17.5788 40.6527L18.3906 40.4673C20.1344 40.075 20.9736 39.8625 21.8237 39.6009C22.8972 39.274 23.9599 38.8653 25.0334 38.364C25.2023 38.2876 25.344 38.2277 25.3821 38.2223Z" fill="url(#paint0_linear)"/>
<path d="M21.3327 6.00028C21.2128 5.98402 19.2782 6.68152 18.0304 7.18824C16.3465 7.87494 15.0387 8.52889 14.2322 9.0955C13.9325 9.30811 13.5565 9.68406 13.4966 9.83117C13.4748 9.88567 13.4639 9.95106 13.4639 10.0164L14.1941 10.7085L15.9324 11.2643L20.0685 12.0055L24.7984 12.8174L24.8475 12.4087C24.8312 12.4087 24.8202 12.4033 24.804 12.4033L24.1826 12.3052L24.0574 12.0818C23.4143 10.9483 22.7059 9.54236 22.2918 8.59418C21.9703 7.8585 21.6651 7.0085 21.4962 6.39814C21.4035 6.02759 21.3927 6.00581 21.3328 6.00038V6.00025H21.3327V6.00028ZM21.2454 6.27828H21.251C21.2563 6.28366 21.2782 6.43634 21.3 6.61606C21.3925 7.37907 21.5616 8.11462 21.8286 8.91025C22.0302 9.50969 22.0302 9.47703 21.7959 9.40614C21.2401 9.25361 18.7497 8.8231 16.946 8.57244C16.6572 8.53427 16.412 8.49615 16.412 8.49072C16.3902 8.46893 17.7143 7.77681 18.2974 7.50441C19.044 7.16103 21.0929 6.30549 21.2454 6.27828ZM15.9923 8.71954L16.2049 8.79031C17.3601 9.18272 20.2645 9.73857 21.8667 9.86934C22.0464 9.8857 22.1991 9.90208 22.2045 9.90208C22.2099 9.90751 22.0574 9.98925 21.8612 10.0819C21.0875 10.4688 20.2373 10.9429 19.6488 11.308C19.4745 11.4169 19.3163 11.5042 19.2946 11.5042C19.2728 11.5042 19.1584 11.4824 19.0385 11.466L18.8206 11.4333L18.2757 10.8992C17.3166 9.96742 16.5646 9.24813 16.2757 8.97561L15.9923 8.71954ZM15.7744 8.88843L16.5427 9.84755C16.9623 10.3761 17.3873 10.8938 17.4801 11.0082C17.5726 11.1227 17.6489 11.2154 17.6435 11.2208C17.6217 11.2371 16.5319 11.0246 15.9542 10.8938C15.3602 10.7576 15.115 10.6922 14.7499 10.5778L14.4502 10.4797V10.4033C14.4556 10.0382 14.9189 9.49331 15.7035 8.93754L15.7744 8.88843ZM22.3026 10.1963C22.3245 10.1963 22.3516 10.2453 22.417 10.3924C22.6023 10.8011 23.18 11.9019 23.3216 12.1144C23.3653 12.1853 23.4415 12.1908 22.6732 12.0654C20.8259 11.7656 20.2319 11.6677 20.2319 11.6567C20.2319 11.6513 20.2864 11.6132 20.3572 11.575C20.9294 11.259 21.507 10.8557 22.0193 10.4252C22.1446 10.3216 22.2591 10.2236 22.2808 10.2072C22.2862 10.1963 22.2972 10.1909 22.3026 10.1963Z" fill="url(#paint1_linear)"/>
<path d="M13.5349 9.75488C13.5349 9.75488 13.4151 9.94569 13.5295 10.2291C13.6004 10.4034 13.8074 10.6159 14.0417 10.8339C14.0417 10.8339 16.4666 13.1989 16.7609 13.5368C18.1014 15.0843 18.6845 16.6102 18.739 18.7136C18.7717 20.065 18.5155 21.253 17.878 22.6317C16.7445 25.1057 14.3522 27.8358 10.6631 30.8656L11.2027 30.6858C11.5514 30.4242 12.0255 30.1463 13.1371 29.536C15.7037 28.13 18.5919 26.8385 22.1339 25.5089C27.2344 23.5907 35.621 21.3455 40.3945 20.6154L40.8904 20.5391L40.8141 20.4192C40.3782 19.7434 40.0784 19.3239 39.7187 18.877C38.6725 17.5801 37.4029 16.5284 35.8498 15.6565C33.7137 14.4632 30.9508 13.5313 27.4524 12.8393C26.7931 12.7084 25.3435 12.4578 24.1665 12.278C21.6707 11.8912 20.0577 11.6241 18.2812 11.3189C17.6437 11.2099 16.69 11.0465 16.0579 10.9103C15.7309 10.8393 15.1043 10.6922 14.6139 10.5233C14.2216 10.3707 13.6548 10.2181 13.5349 9.75488ZM14.9409 11.1173C14.9463 11.1119 15.0334 11.1445 15.148 11.1827C15.355 11.2534 15.622 11.3352 15.9382 11.4224C16.1773 11.4882 16.4171 11.5518 16.6574 11.6131C16.9844 11.6948 17.2568 11.7711 17.2622 11.7711C17.3005 11.8093 17.8509 13.5693 18.0361 14.2451C18.1069 14.5012 18.1615 14.7192 18.156 14.7192C18.1504 14.7247 18.0906 14.632 18.0198 14.5067C17.3822 13.3841 16.374 12.2452 15.2079 11.3297C15.0554 11.2208 14.9409 11.1227 14.9409 11.1173ZM17.6219 11.8584C17.6492 11.8584 17.7691 11.8747 17.9161 11.9074C18.8425 12.1145 20.5046 12.4305 21.5672 12.6104C21.747 12.6376 21.8888 12.6704 21.8888 12.6812C21.8888 12.6921 21.8233 12.7302 21.7415 12.7739C21.5618 12.8665 20.837 13.2969 20.5973 13.4604C19.9923 13.8637 19.4475 14.2996 19.0551 14.6919C18.8971 14.85 18.7608 14.9808 18.7608 14.9808C18.7608 14.9808 18.7282 14.8882 18.7008 14.7737C18.5048 14.0162 18.096 12.8936 17.7254 12.1035C17.6655 11.9782 17.6164 11.8638 17.6164 11.8529C17.6164 11.8638 17.6164 11.8584 17.6219 11.8584ZM22.341 12.7575C22.3737 12.7684 22.4282 12.9537 22.5372 13.3623C22.7388 14.1525 22.8315 15.0353 22.7988 15.8581C22.7878 16.087 22.777 16.2995 22.766 16.3268L22.7497 16.3813L22.4663 16.2887C21.8833 16.1034 20.9351 15.8254 20.1232 15.5966C19.6599 15.4712 19.284 15.3568 19.284 15.3459C19.284 15.3132 19.9598 14.6375 20.2486 14.3814C20.7988 13.8963 22.2919 12.7411 22.341 12.7575ZM22.717 12.8119C22.7334 12.7957 24.973 13.1825 25.9921 13.3787C26.7496 13.5258 27.8503 13.7547 27.9157 13.782C27.9484 13.7928 27.8339 13.8582 27.4688 14.0217C26.0302 14.6702 24.9621 15.2532 23.8996 15.9617C23.6216 16.147 23.3873 16.2995 23.3819 16.2995C23.3764 16.2995 23.371 16.1415 23.371 15.9508C23.371 14.9154 23.1639 13.8691 22.7824 12.9864C22.7442 12.8992 22.7116 12.8175 22.717 12.8119ZM28.5096 13.9563C28.526 13.9727 28.4551 14.4141 28.3897 14.6756C28.1936 15.4876 27.665 16.692 27.0166 17.8254C26.9021 18.027 26.7986 18.1905 26.7876 18.1959C26.7768 18.2013 26.6296 18.1196 26.4607 18.0215C25.8286 17.6509 25.1093 17.3022 24.3245 16.9752C24.1067 16.8826 23.9159 16.8063 23.9104 16.7955C23.8722 16.7627 25.6269 15.602 26.5533 15.0462C27.289 14.5994 28.4878 13.9345 28.5096 13.9563ZM28.9237 14.0217C28.9728 14.0217 29.9646 14.2942 30.4822 14.4468C31.7628 14.8283 33.2341 15.3677 34.1932 15.8036L34.5909 15.9835L34.3131 16.0489C31.97 16.5883 29.9646 17.2096 28.03 17.9943C27.872 18.0597 27.7303 18.1142 27.7195 18.1142C27.7086 18.1142 27.7631 17.9889 27.8339 17.8362C28.417 16.5993 28.793 15.3078 28.8856 14.207C28.8911 14.1034 28.9073 14.0217 28.9237 14.0217ZM19.0497 16.2887C19.066 16.2723 19.8234 16.4521 20.2321 16.5665C20.8534 16.7409 22.172 17.1823 22.172 17.215C22.172 17.2204 22.025 17.3458 21.8506 17.4984C21.1368 18.0924 20.4501 18.719 19.6272 19.5146C19.382 19.749 19.175 19.9397 19.1641 19.9397C19.1532 19.9397 19.1478 19.9069 19.1532 19.8634C19.2785 18.9478 19.2513 17.7708 19.0769 16.5774C19.0605 16.4248 19.0442 16.2941 19.0497 16.2887ZM34.9671 16.305C34.9779 16.3159 34.6183 16.8826 34.3894 17.2041C34.0625 17.6727 33.5828 18.294 32.4984 19.6563C31.9264 20.3756 31.2832 21.1876 31.0708 21.46C30.8527 21.7325 30.673 21.9613 30.6675 21.9613C30.662 21.9613 30.5913 21.8633 30.515 21.7434C29.9046 20.8279 29.1744 20.0268 28.3079 19.3076C28.1445 19.1713 27.9647 19.0242 27.9048 18.9806C27.8448 18.937 27.7957 18.8934 27.7957 18.888C27.7957 18.8716 28.722 18.4738 29.4251 18.1905C30.6567 17.6891 32.3349 17.0897 33.5938 16.7028C34.2531 16.4957 34.9561 16.2941 34.9671 16.305ZM35.3866 16.4139C35.4084 16.4085 35.5392 16.4739 35.6973 16.5665C37.0215 17.3239 38.3183 18.2994 39.3429 19.3021C39.6316 19.5855 40.3455 20.3266 40.3345 20.332C40.3345 20.332 40.0839 20.3538 39.7897 20.3756C37.4955 20.55 34.5584 21.0349 31.7356 21.7161C31.5449 21.7596 31.376 21.7978 31.3651 21.7978C31.3543 21.7978 31.5667 21.5853 31.8338 21.3292C33.4903 19.7326 34.2478 18.7245 35.1414 16.9261C35.2667 16.6592 35.3758 16.4303 35.3866 16.4139C35.3812 16.4139 35.3812 16.4139 35.3866 16.4139ZM23.251 17.6565C23.3274 17.6727 24.0358 18.0053 24.5698 18.2722C25.0602 18.5173 25.7959 18.9098 25.834 18.9424C25.8395 18.9478 25.5778 19.0841 25.2565 19.2421C24.2319 19.7544 23.3546 20.2393 22.4391 20.7952C22.1775 20.9532 21.9596 21.0841 21.9541 21.0841C21.9323 21.0841 21.9378 21.0621 22.0849 20.7952C22.5754 19.9015 22.9677 18.8335 23.1912 17.7926C23.2129 17.7109 23.2347 17.6565 23.251 17.6565ZM22.5426 17.7872C22.559 17.8036 22.3737 18.4738 22.2593 18.8389C22.0358 19.531 21.6598 20.3974 21.2948 21.0513C21.2075 21.2038 21.0767 21.4273 21.0059 21.5526L20.8697 21.7706L20.5645 21.4764C20.2104 21.133 19.9215 20.9205 19.551 20.7297C19.4038 20.6535 19.2894 20.5881 19.2894 20.5772C19.2894 20.5336 20.2212 19.689 20.9351 19.0787C21.4473 18.6373 22.5263 17.7709 22.5426 17.7872ZM26.8749 19.5691L27.1419 19.7435C27.7521 20.1413 28.4714 20.6699 29.0219 21.133C29.3324 21.3891 29.9318 21.9287 30.0518 22.0594L30.1171 22.1304L29.6758 22.2556C27.18 22.9476 25.2509 23.5634 23.0004 24.3918C22.7497 24.4844 22.5372 24.5607 22.5208 24.5607C22.4882 24.5607 22.4608 24.5879 23.0222 24.0702C24.4608 22.7461 25.7359 21.2856 26.6841 19.8633L26.8749 19.5691ZM25.736 19.8525C25.7468 19.8634 25.0003 20.915 24.5534 21.509C24.0194 22.2175 23.0712 23.4054 22.4173 24.1791C22.1449 24.5007 21.9106 24.7677 21.8996 24.7732C21.8833 24.7786 21.8778 24.6969 21.8778 24.5715C21.8778 23.9121 21.7089 23.2092 21.4146 22.6098C21.2893 22.3591 21.2675 22.2992 21.2948 22.2719C21.3983 22.1793 22.984 21.2747 23.9867 20.7352C24.6624 20.3756 25.7195 19.8416 25.736 19.8525ZM18.848 21.5418C18.8644 21.5418 18.9897 21.6071 19.1314 21.6835C19.4801 21.8742 19.7908 22.0867 20.0687 22.3156C20.0795 22.3265 19.9379 22.4409 19.7526 22.5771C19.2349 22.9476 18.4502 23.5417 17.9926 23.9068C17.5129 24.2882 17.4967 24.2991 17.5511 24.2174C17.9108 23.667 18.0905 23.3564 18.2813 22.9586C18.4502 22.6045 18.6191 22.1848 18.739 21.8197C18.7826 21.6617 18.8371 21.5418 18.848 21.5418ZM20.6845 22.9804C20.7116 22.975 20.7444 23.024 20.8915 23.242C21.2021 23.7051 21.4419 24.3264 21.5019 24.8277L21.5127 24.9367L20.7662 25.2256C19.4311 25.7432 18.1996 26.2555 17.3657 26.6369C17.1315 26.7459 16.7228 26.942 16.4558 27.0729C16.1888 27.209 15.9708 27.3126 15.9708 27.3072C15.9708 27.3017 16.1397 27.1764 16.3467 27.0238C17.9762 25.8413 19.3875 24.5443 20.4447 23.2474C20.5591 23.1112 20.6627 22.9858 20.6735 22.9804L20.6845 22.9804ZM19.8398 23.1875C19.8616 23.2093 19.2404 23.9122 18.8154 24.3427C17.7637 25.4162 16.7228 26.2555 15.4313 27.0729C15.2678 27.1764 15.1207 27.269 15.1044 27.2799C15.0662 27.3017 15.1152 27.2472 15.682 26.6314C16.0417 26.2445 16.3141 25.9176 16.6247 25.5144C16.8318 25.2474 16.8699 25.2092 17.1697 24.9966C17.9707 24.419 19.818 23.1656 19.8398 23.1875Z" fill="url(#paint2_radial)"/>
<defs>
<linearGradient id="paint0_linear" x1="13.4239" y1="38.439" x2="16.0309" y2="36.8986" gradientUnits="userSpaceOnUse">
<stop stop-color="#909CA9"/>
<stop offset="1" stop-color="#EDEDEE"/>
</linearGradient>
<linearGradient id="paint1_linear" x1="13.483" y1="9.39819" x2="15.5806" y2="9.39819" gradientUnits="userSpaceOnUse">
<stop stop-color="#939FAB"/>
<stop offset="1" stop-color="#DCDEE1"/>
</linearGradient>
<radialGradient id="paint2_radial" cx="0" cy="0" r="1" gradientUnits="userSpaceOnUse" gradientTransform="translate(24.0678 19.0185) rotate(-171.457) scale(2.70439 5.41013)">
<stop stop-color="#EE352C"/>
<stop offset="1" stop-color="#A91D22"/>
</radialGradient>
</defs>
</svg>
