<svg width="156" height="97" viewBox="0 0 156 97" fill="none" xmlns="http://www.w3.org/2000/svg">
<path d="M0.116211 66.804L40.1162 84.4177V72.912L13.0992 62.0597V61.5484L40.1162 50.6961V39.1904L0.116211 56.804V66.804Z" fill="#36297A"/>
<path d="M85.4742 24.162H75.048L56.298 93.8211H66.7242L85.4742 24.162Z" fill="#36297A"/>
<path d="M141.663 66.804V56.804L101.663 39.1904V50.6961L128.68 61.5484V62.0597L101.663 72.912V84.4177L141.663 66.804Z" fill="#36297A"/>
<path d="M148.734 49.733V59.733L141.663 66.804V56.804L148.734 49.733Z" fill="#36297A"/>
<path d="M108.734 32.1193L148.734 49.733L141.663 56.804L101.663 39.1904L108.734 32.1193Z" fill="#36297A"/>
<path d="M135.752 54.9887V54.4773L128.681 61.5484V62.0597L135.752 54.9887Z" fill="#36297A"/>
<path d="M135.751 54.4773L108.734 43.625L101.663 50.6961L128.68 61.5483L135.751 54.4773Z" fill="#36297A"/>
<path d="M108.734 43.625V32.1193L101.663 39.1904V50.6961L108.734 43.625Z" fill="#36297A"/>
<path d="M82.1189 17.0909H92.5451L85.474 24.162H75.0479L82.1189 17.0909Z" fill="#36297A"/>
<path d="M108.734 65.8409L135.751 54.9886L128.68 62.0597L101.663 72.912L108.734 65.8409Z" fill="#36297A"/>
<path d="M148.734 59.733L108.734 77.3466L101.663 84.4177L141.663 66.804L148.734 59.733Z" fill="#36297A"/>
<path d="M108.734 77.3466V65.8409L101.663 72.912V84.4177L108.734 77.3466Z" fill="#36297A"/>
<path d="M92.5457 17.0909L73.7957 86.75L66.7246 93.8211L85.4746 24.162L92.5457 17.0909Z" fill="#36297A"/>
<path d="M63.3689 86.75L82.1189 17.0909L75.0478 24.162L56.2979 93.8211L63.3689 86.75Z" fill="#36297A"/>
<path d="M47.1873 32.1193V43.625L40.1162 50.6961V39.1904L47.1873 32.1193Z" fill="#36297A"/>
<path d="M7.18728 49.733L47.1873 32.1193L40.1162 39.1904L0.116211 56.804L7.18728 49.733Z" fill="#36297A"/>
<path d="M47.1877 43.625L20.1707 54.4773L13.0996 61.5483L40.1167 50.6961L47.1877 43.625Z" fill="#36297A"/>
<path d="M73.7951 86.75H63.3689L56.2979 93.8211H66.724L73.7951 86.75Z" fill="#36297A"/>
<path d="M47.1873 65.8409V77.3466L40.1162 84.4177V72.912L47.1873 65.8409Z" fill="#36297A"/>
<path d="M20.1707 54.9886L47.1877 65.8409L40.1167 72.912L13.0996 62.0597L20.1707 54.9886Z" fill="#36297A"/>
<path d="M20.1707 54.4773V54.9887L13.0996 62.0597V61.5484L20.1707 54.4773Z" fill="#36297A"/>
<path d="M47.1873 77.3466L7.18728 59.733L0.116211 66.804L40.1162 84.4177L47.1873 77.3466Z" fill="#36297A"/>
<path d="M7.18728 59.733V49.733L0.116211 56.804V66.804L7.18728 59.733Z" fill="#36297A"/>
<path d="M7.1875 59.733L47.1875 77.3466V65.8409L20.1705 54.9886V54.4773L47.1875 43.625V32.1193L7.1875 49.733V59.733ZM92.5455 17.0909H82.1193L63.3693 86.75H73.7955L92.5455 17.0909ZM148.734 59.733V49.733L108.734 32.1193V43.625L135.751 54.4773V54.9886L108.734 65.8409V77.3466L148.734 59.733Z" fill="#B498FF"/>
</svg>
