<svg width="224" height="61" viewBox="0 0 224 61" fill="none" xmlns="http://www.w3.org/2000/svg">
<path d="M0 20.5361C0 17.5251 0.782004 14.7992 2.04625 12.8264C3.30981 10.8546 5.05508 9.63516 6.9828 9.63516H123.595C127.452 9.63516 130.578 14.5157 130.578 20.5361V49.9686C130.578 52.978 129.797 55.7026 128.534 57.6751C127.27 59.6488 125.524 60.8696 123.595 60.8696H6.98279C3.1263 60.8696 0 55.9891 0 49.9686V20.5361Z" fill="#6536AB"/>
<path d="M136.75 10.9009C136.75 4.88052 133.624 0 129.768 0L123.596 9.63516C127.452 9.63516 130.578 14.5157 130.578 20.5361L136.75 10.9009Z" fill="#6536AB"/>
<path d="M136.75 40.3335V10.9009L130.578 20.5361V49.9686L136.75 40.3335Z" fill="#6536AB"/>
<path d="M134.706 48.04C135.969 46.0674 136.75 43.3429 136.75 40.3335L130.578 49.9686C130.578 52.978 129.797 55.7026 128.534 57.6751L134.706 48.04Z" fill="#6536AB"/>
<path d="M129.768 51.2344C131.695 51.2344 133.441 50.0149 134.704 48.0432L128.534 57.6751C127.271 59.6488 125.524 60.8696 123.596 60.8696L129.768 51.2344Z" fill="#6536AB"/>
<path d="M129.767 0H13.1544L6.98242 9.63516H123.595L129.767 0Z" fill="#6536AB"/>
<path d="M17.7819 50.9317H218.43L207.811 60.8696H7.16211L17.7819 50.9317Z" fill="#3B1E66"/>
<path d="M8.21788 3.19119C9.48143 1.21946 11.2267 0 13.1544 0L6.98244 9.63516C5.05473 9.63516 3.30945 10.8546 2.0459 12.8263L8.21788 3.19119Z" fill="#6536AB"/>
<path d="M6.17198 10.9009C6.17198 7.89155 6.95313 5.16698 8.21616 3.19443L2.04625 12.8264C0.782004 14.7992 0 17.5251 0 20.5361L6.17198 10.9009Z" fill="#6536AB"/>
<path d="M6.17198 10.9009V40.3335L0 49.9686V20.5361L6.17198 10.9009Z" fill="#6536AB"/>
<path d="M8.44527 40C8.44527 46.1564 12.7231 51.1472 18 51.1472L9.55473 61C4.2778 61 0 56.0092 0 49.8528L8.44527 40Z" fill="#4D2983"/>
<rect x="6.36621" width="217.634" height="50.9317" rx="13.4315" fill="#B498FF"/>
<path d="M75.2841 24.2017C75.0142 22.1918 73.3949 20.9489 70.6392 20.9489C67.848 20.9489 66.0085 22.2415 66.0156 24.3438C66.0085 25.9773 67.0384 27.0355 69.169 27.4616L71.0582 27.8381C72.0099 28.0298 72.4432 28.3778 72.4574 28.9247C72.4432 29.571 71.7401 30.0327 70.6818 30.0327C69.6023 30.0327 68.8849 29.571 68.7003 28.6832L65.7244 28.8395C66.0085 30.9276 67.7841 32.2131 70.6747 32.2131C73.5014 32.2131 75.5256 30.7713 75.5327 28.6193C75.5256 27.0426 74.4957 26.098 72.3793 25.6648L70.4048 25.267C69.3892 25.0469 69.0128 24.6989 69.0199 24.1733C69.0128 23.5199 69.7514 23.0938 70.6889 23.0938C71.7401 23.0938 72.3651 23.669 72.5142 24.3722L75.2841 24.2017ZM82.5487 32.206C84.1609 32.206 85.2049 31.5028 85.7376 30.4872H85.8228V32H88.6921V24.642C88.6921 22.0426 86.4904 20.9489 84.0614 20.9489C81.4478 20.9489 79.729 22.1989 79.31 24.1875L82.1083 24.4148C82.3143 23.6903 82.9606 23.1577 84.0472 23.1577C85.0771 23.1577 85.6665 23.6761 85.6665 24.571V24.6136C85.6665 25.3168 84.9208 25.4091 83.0245 25.5938C80.8654 25.7926 78.9265 26.517 78.9265 28.9531C78.9265 31.1122 80.4677 32.206 82.5487 32.206ZM83.4151 30.1179C82.4847 30.1179 81.8171 29.6847 81.8171 28.8537C81.8171 28.0014 82.5202 27.5824 83.5856 27.4332C84.2461 27.3409 85.3256 27.1847 85.6879 26.9432V28.1009C85.6879 29.2443 84.7433 30.1179 83.4151 30.1179ZM94.5167 36.0909C96.7681 36.0909 97.9613 34.9403 98.5792 33.179L102.819 21.1051L99.6161 21.0909L97.3363 29.1023H97.2227L94.9641 21.0909H91.7823L95.6957 32.3125L95.5181 32.7741C95.1204 33.7969 94.3604 33.8466 93.2951 33.5199L92.6133 35.7784C93.0465 35.9631 93.7496 36.0909 94.5167 36.0909ZM117.535 33.8182H119.211L119.225 32.1776C122.3 31.9432 124.083 30.3097 124.09 27.8452C124.083 25.4233 122.258 24.1378 119.729 23.5696L119.31 23.4702L119.339 19.919C120.283 20.1392 120.859 20.7429 120.944 21.6378H123.891C123.856 19.2869 122.102 17.6037 119.367 17.3054L119.381 15.6364H117.705L117.691 17.2912C114.914 17.5611 112.954 19.2372 112.968 21.6591C112.961 23.804 114.474 25.0327 116.931 25.6222L117.613 25.7926L117.577 29.5497C116.42 29.3295 115.638 28.6193 115.56 27.4332H112.585C112.656 30.3026 114.538 31.9077 117.549 32.1705L117.535 33.8182ZM119.254 29.5497L119.282 26.233C120.383 26.581 120.979 27.0284 120.987 27.8381C120.979 28.6974 120.326 29.3366 119.254 29.5497ZM117.634 23.0369C116.746 22.7315 116.107 22.2699 116.121 21.4531C116.121 20.6932 116.661 20.1037 117.663 19.8977L117.634 23.0369ZM133.031 32.2131C136.341 32.2131 138.4 29.9474 138.4 26.5881C138.4 23.2074 136.341 20.9489 133.031 20.9489C129.721 20.9489 127.662 23.2074 127.662 26.5881C127.662 29.9474 129.721 32.2131 133.031 32.2131ZM133.045 29.8693C131.518 29.8693 130.737 28.4702 130.737 26.5668C130.737 24.6634 131.518 23.2571 133.045 23.2571C134.544 23.2571 135.325 24.6634 135.325 26.5668C135.325 28.4702 134.544 29.8693 133.045 29.8693ZM145.393 17.4545H142.368V32H145.393V17.4545ZM152.928 32.206C154.54 32.206 155.584 31.5028 156.116 30.4872H156.202V32H159.071V24.642C159.071 22.0426 156.869 20.9489 154.44 20.9489C151.827 20.9489 150.108 22.1989 149.689 24.1875L152.487 24.4148C152.693 23.6903 153.339 23.1577 154.426 23.1577C155.456 23.1577 156.045 23.6761 156.045 24.571V24.6136C156.045 25.3168 155.3 25.4091 153.403 25.5938C151.244 25.7926 149.305 26.517 149.305 28.9531C149.305 31.1122 150.847 32.206 152.928 32.206ZM153.794 30.1179C152.864 30.1179 152.196 29.6847 152.196 28.8537C152.196 28.0014 152.899 27.5824 153.964 27.4332C154.625 27.3409 155.705 27.1847 156.067 26.9432V28.1009C156.067 29.2443 155.122 30.1179 153.794 30.1179ZM153.467 19.6847H155.605L157.771 16.4531H154.973L153.467 19.6847Z" fill="#3C3559"/>
</svg>
