<svg width="200" height="61" viewBox="0 0 200 61" fill="none" xmlns="http://www.w3.org/2000/svg">
<path d="M0 20.5361C0 17.5251 0.782004 14.7992 2.04625 12.8263C3.30981 10.8546 5.05508 9.63515 6.9828 9.63515H123.595C127.452 9.63515 130.578 14.5157 130.578 20.5361V49.9686C130.578 52.978 129.797 55.7026 128.534 57.6751C127.27 59.6488 125.524 60.8696 123.595 60.8696H6.98279C3.1263 60.8696 0 55.989 0 49.9686V20.5361Z" fill="#B981C6"/>
<path d="M136.75 10.9009C136.75 4.88052 133.624 0 129.768 0L123.596 9.63516C127.452 9.63516 130.578 14.5157 130.578 20.5361L136.75 10.9009Z" fill="#B981C6"/>
<path d="M136.75 40.3335V10.9009L130.578 20.5361V49.9686L136.75 40.3335Z" fill="#B981C6"/>
<path d="M134.706 48.04C135.969 46.0674 136.75 43.3429 136.75 40.3335L130.578 49.9686C130.578 52.978 129.797 55.7026 128.534 57.6751L134.706 48.04Z" fill="#B981C6"/>
<path d="M129.768 51.2344C131.695 51.2344 133.441 50.0149 134.704 48.0432L128.534 57.6751C127.271 59.6488 125.524 60.8696 123.596 60.8696L129.768 51.2344Z" fill="#B981C6"/>
<path d="M129.767 0H13.1544L6.98242 9.63516H123.595L129.767 0Z" fill="#B981C6"/>
<path d="M17.7819 50.9317H218.43L207.811 60.8696H7.16211L17.7819 50.9317Z" fill="#7C5186"/>
<path d="M8.21788 3.19119C9.48143 1.21946 11.2267 0 13.1544 0L6.98244 9.63516C5.05473 9.63516 3.30945 10.8546 2.0459 12.8263L8.21788 3.19119Z" fill="#B981C6"/>
<path d="M6.17198 10.9009C6.17198 7.89155 6.95313 5.16698 8.21616 3.19443L2.04625 12.8264C0.782004 14.7992 0 17.5251 0 20.5361L6.17198 10.9009Z" fill="#B981C6"/>
<path d="M6.17198 10.9009V40.3335L0 49.9686V20.5361L6.17198 10.9009Z" fill="#B981C6"/>
<path d="M8.44527 40C8.44527 46.1564 12.7231 51.1472 18 51.1472L9.55473 61C4.2778 61 0 56.0092 0 49.8528L8.44527 40Z" fill="#9D6FA7"/>
<rect x="6.36621" width="217.634" height="50.9317" rx="13.4315" fill="#D499E1"/>
<path d="M27.324 32.328H30.12V29.124C30.504 29.52 31.836 30.012 33.348 30.012C35.652 30.012 37.74 28.956 37.74 26.652C37.74 23.46 35.364 23.088 33.288 23.088C31.704 23.088 30.72 23.568 30.12 24V23.088H27.324V32.328ZM32.88 27.96C32.88 27.96 30.816 28.02 30.12 27.108V25.98C30.396 25.56 31.296 25.152 32.424 25.152C33.852 25.152 34.752 25.356 34.752 26.568C34.752 28.008 32.88 27.96 32.88 27.96ZM45.2287 23.052C43.5608 23.052 42.6967 23.508 42.2888 24.012V23.052H42.2767H39.6847H39.4927V30H42.2888V26.352C42.6728 25.98 43.3327 25.26 44.8928 25.356C46.0088 25.428 47.0408 25.932 47.0408 25.932L48.0848 23.808C48.0848 23.808 47.1488 23.052 45.2287 23.052ZM49.5881 23.052V30H52.3841V23.052H49.5881ZM49.5881 21.156V22.512H52.3841V21.156H49.5881ZM63.5287 24.48C62.9527 23.16 61.5367 22.992 60.2287 22.992C58.6447 22.992 57.9847 23.472 57.2167 24.012V23.052H54.3967V30H57.2167V25.992C57.6607 25.524 58.1767 25.14 59.3047 25.14C61.2127 25.14 61.1527 26.688 61.1527 27.708C61.1527 28.74 61.1527 30 61.1527 30H63.9367V29.46C63.9367 26.856 63.9367 25.416 63.5287 24.48ZM70.4006 27.732C69.3566 27.732 69.4406 26.496 69.4406 26.496V25.104H72.8246V23.028H69.4406V21.576H66.6446V23.028H65.2646V25.104H66.6446V26.496C66.6446 29.604 67.0646 30.036 69.2606 30.036C72.0446 30.036 73.6646 29.472 73.6646 29.472L72.6806 27.312C72.6806 27.312 71.4686 27.732 70.4006 27.732ZM82.8023 21.636L82.4303 22.836L83.1263 23.148L85.0223 21.636V20.1H82.8023V21.636ZM85.7183 20.1V21.636L85.3463 22.836L86.0423 23.148L87.9503 21.636V20.1H85.7183ZM89.9467 32.328H92.7427V29.124C93.1267 29.52 94.4587 30.012 95.9707 30.012C98.2747 30.012 100.363 28.956 100.363 26.652C100.363 23.46 97.9867 23.088 95.9107 23.088C94.3267 23.088 93.3427 23.568 92.7427 24V23.088H89.9467V32.328ZM95.5027 27.96C95.5027 27.96 93.4387 28.02 92.7427 27.108V25.98C93.0187 25.56 93.9187 25.152 95.0467 25.152C96.4747 25.152 97.3747 25.356 97.3747 26.568C97.3747 28.008 95.5027 27.96 95.5027 27.96ZM107.038 23.016C104.338 23.016 102.034 23.664 102.034 26.544C102.034 29.22 103.87 30.072 107.11 30.072C110.278 30.072 112.282 29.244 112.282 26.544C112.282 23.58 109.774 23.016 107.038 23.016ZM107.134 28.104C105.67 28.104 104.998 27.588 104.998 26.484C104.998 25.308 106.234 24.984 107.11 24.984C107.986 24.984 109.306 25.236 109.306 26.544C109.306 27.744 108.466 28.104 107.134 28.104ZM119.669 23.052C118.001 23.052 117.137 23.508 116.729 24.012V23.052H116.717H114.125H113.933V30H116.729V26.352C117.113 25.98 117.773 25.26 119.333 25.356C120.449 25.428 121.481 25.932 121.481 25.932L122.525 23.808C122.525 23.808 121.589 23.052 119.669 23.052ZM129.222 27.732C128.178 27.732 128.262 26.496 128.262 26.496V25.104H131.646V23.028H128.262V21.576H125.466V23.028H124.086V25.104H125.466V26.496C125.466 29.604 125.886 30.036 128.082 30.036C130.866 30.036 132.486 29.472 132.486 29.472L131.502 27.312C131.502 27.312 130.29 27.732 129.222 27.732ZM139.624 23.664C140.896 23.664 141.604 23.94 141.604 23.94V21.828C141.604 21.828 140.56 21.576 138.28 21.576C136.336 21.576 135.436 22.272 135.436 24.576H134.356V26.52H135.388V30H138.172V26.52H141.604V24.576H138.244C138.244 23.64 138.712 23.664 139.624 23.664ZM148.249 23.016C145.549 23.016 143.245 23.664 143.245 26.544C143.245 29.22 145.081 30.072 148.321 30.072C151.489 30.072 153.493 29.244 153.493 26.544C153.493 23.58 150.985 23.016 148.249 23.016ZM148.345 28.104C146.881 28.104 146.209 27.588 146.209 26.484C146.209 25.308 147.445 24.984 148.321 24.984C149.197 24.984 150.517 25.236 150.517 26.544C150.517 27.744 149.677 28.104 148.345 28.104ZM155.272 29.256V30H158.068V21.6H155.272V21.672V29.256ZM160 23.052V30H162.796V23.052H160ZM160 21.156V22.512H162.796V21.156H160ZM169.626 23.016C166.926 23.016 164.622 23.664 164.622 26.544C164.622 29.22 166.458 30.072 169.698 30.072C172.866 30.072 174.87 29.244 174.87 26.544C174.87 23.58 172.362 23.016 169.626 23.016ZM169.722 28.104C168.258 28.104 167.586 27.588 167.586 26.484C167.586 25.308 168.822 24.984 169.698 24.984C170.574 24.984 171.894 25.236 171.894 26.544C171.894 27.744 171.054 28.104 169.722 28.104ZM177.103 21.636L176.731 22.836L177.427 23.148L179.323 21.636V20.1H177.103V21.636ZM180.019 20.1V21.636L179.647 22.836L180.343 23.148L182.251 21.636V20.1H180.019Z" fill="#3C3559"/>
</svg>
