<svg width="48" height="48" viewBox="0 0 48 48" fill="none" xmlns="http://www.w3.org/2000/svg">
<path d="M38.4844 6H9.51562C7.574 6 6 7.574 6 9.51562V38.4844C6 40.426 7.574 42 9.51562 42H38.4844C40.426 42 42 40.426 42 38.4844V9.51562C42 7.574 40.426 6 38.4844 6Z" fill="#3178C6"/>
<path fill-rule="evenodd" clip-rule="evenodd" d="M28.2891 34.6175V38.1331C28.8586 38.4284 29.5547 38.6464 30.3281 38.7941C31.1016 38.9417 31.9453 39.012 32.7891 39.012C33.6328 39.012 34.4063 38.9347 35.1797 38.773C35.9531 38.6112 36.5859 38.3441 37.1484 37.9995C37.718 37.6269 38.2031 37.1558 38.4844 36.523C38.7656 35.8902 38.9836 35.187 38.9836 34.273C38.9836 33.6331 38.8852 33.0777 38.6953 32.5855C38.5055 32.0933 38.2313 31.6714 37.8516 31.3198C37.493 30.9472 37.0781 30.6167 36.5859 30.3355C36.0938 30.0542 35.5313 29.7589 34.8984 29.4917C34.4344 29.3019 34.0547 29.1191 33.6328 28.9362C33.2672 28.7534 32.9508 28.5706 32.7188 28.3878C32.4586 28.198 32.2617 28.0011 32.1211 27.7972C31.9805 27.5862 31.9102 27.3542 31.9102 27.0941C31.9102 26.855 31.9727 26.637 32.1 26.4402C32.2273 26.2433 32.4023 26.0816 32.6273 25.9409C32.8523 25.8003 33.1336 25.6948 33.4711 25.6175C33.8016 25.5402 34.1672 25.505 34.5961 25.505C34.8914 25.505 35.2008 25.5268 35.5102 25.5711C35.8336 25.6154 36.1641 25.6836 36.4945 25.775C36.825 25.8664 37.1484 25.9789 37.4789 26.1195C37.7883 26.2602 38.0766 26.4219 38.3227 26.6047V23.3C37.7883 23.0961 37.1977 22.9414 36.5648 22.843C35.932 22.7445 35.2289 22.6953 34.3852 22.6953C33.5414 22.6953 32.768 22.7867 31.9945 22.9625C31.2211 23.1383 30.5883 23.4195 30.0258 23.8062C29.4563 24.1859 29.0414 24.65 28.6898 25.2828C28.3594 25.8734 28.1977 26.5484 28.1977 27.3922C28.1977 28.4469 28.5 29.3609 29.1117 30.0641C29.7164 30.8375 30.6586 31.4 31.8539 31.9625C32.3391 32.1594 32.768 32.3562 33.1898 32.5461C33.6117 32.7359 33.9633 32.9328 34.2445 33.1367C34.5469 33.3406 34.7859 33.5656 34.9477 33.8047C35.1234 34.0437 35.2148 34.325 35.2148 34.6484C35.2148 34.8734 35.16 35.0844 35.0531 35.2812C34.9463 35.4781 34.7789 35.6469 34.5539 35.7875C34.3289 35.9281 34.0547 36.0406 33.7102 36.125C33.3797 36.2023 33.007 36.2445 32.5148 36.2445C31.7414 36.2445 30.968 36.1109 30.2648 35.8437C29.4914 35.5766 28.7883 35.1758 28.1555 34.6484L28.2891 34.6175ZM22.3828 25.9691H26.8828V23.0862H14.2969V25.9691H18.7969V38.8362H22.3828V25.9691Z" fill="white"/>
</svg>
